<?xml version="1.0" encoding="utf-8"?>
<!-- Generator: Adobe Illustrator 16.0.4, SVG Export Plug-In . SVG Version: 6.00 Build 0)  -->
<!DOCTYPE svg PUBLIC "-//W3C//DTD SVG 1.1//EN" "http://www.w3.org/Graphics/SVG/1.1/DTD/svg11.dtd">
<svg version="1.1" xmlns="http://www.w3.org/2000/svg" xmlns:xlink="http://www.w3.org/1999/xlink" x="0px" y="0px"
	 width="245.918px" height="224px" viewBox="0 0 245.918 224" enable-background="new 0 0 245.918 224" xml:space="preserve">
<g id="Ebene_2">
</g>
<g id="Ebene_1">
	<circle fill="#00FFFF" stroke="#00FFFF" stroke-width="0.7002" stroke-miterlimit="10" cx="123.414" cy="111.147" r="103.442"/>
	<path stroke="#00FFFF" stroke-width="0.5178" stroke-miterlimit="10" d="M199.914,111.147c0,42.241-34.257,76.499-76.5,76.499
		c-42.242,0-76.5-34.258-76.5-76.499c0-42.244,34.258-76.5,76.5-76.5C165.657,34.647,199.914,68.903,199.914,111.147z"/>
	<rect x="3.533" y="97.414" fill="none" width="239.762" height="96.63"/>
	<text transform="matrix(1 0 0 1 59.3809 118.75)" fill="#00FFFF" font-family="'Roboto-Bold'" font-size="28">CAPTURE </text>
	<rect x="-0.082" width="246" height="226"/>
	<circle fill="#00FFFF" stroke="#00FFFF" stroke-width="0.7002" stroke-miterlimit="10" cx="123.268" cy="107.824" r="103.442"/>
	<path d="M199.768,107.824c0,42.241-34.257,76.498-76.5,76.498c-42.242,0-76.5-34.257-76.5-76.498c0-42.245,34.258-76.5,76.5-76.5
		C165.511,31.324,199.768,65.58,199.768,107.824z"/>
	<g>
		<path fill="#00FFFF" stroke="#00FFFF" stroke-width="0.7002" stroke-miterlimit="10" d="M76.119,108.645l0.027,0.082
			c0.035,2.142-0.618,3.842-1.963,5.1c-1.344,1.258-3.211,1.887-5.598,1.887c-2.398,0-4.344-0.77-5.838-2.311
			c-1.496-1.54-2.242-3.522-2.242-5.947v-3.951c0-2.415,0.729-4.397,2.188-5.947c1.457-1.549,3.354-2.324,5.688-2.324
			c2.461,0,4.383,0.631,5.77,1.894c1.385,1.263,2.059,2.983,2.023,5.161l-0.027,0.082h-3.883c0-1.312-0.314-2.317-0.943-3.015
			s-1.609-1.046-2.939-1.046c-1.195,0-2.143,0.485-2.844,1.455c-0.703,0.97-1.053,2.206-1.053,3.708v3.975
			c0,1.521,0.369,2.766,1.107,3.736s1.736,1.455,2.994,1.455c1.248,0,2.171-0.335,2.768-1.005c0.598-0.67,0.896-1.666,0.896-2.987
			H76.119z"/>
		<path fill="#00FFFF" stroke="#00FFFF" stroke-width="0.7002" stroke-miterlimit="10" d="M90.367,111.133h-6.986l-1.354,4.293
			h-4.033l6.85-19.906h4.088l6.822,19.906h-4.033L90.367,111.133z M84.365,108.002h5.018l-2.461-7.82H86.84L84.365,108.002z"/>
		<path fill="#00FFFF" stroke="#00FFFF" stroke-width="0.7002" stroke-miterlimit="10" d="M102.306,108.208v7.219h-3.992V95.52h7.93
			c2.288,0,4.088,0.583,5.4,1.75c1.312,1.167,1.969,2.703,1.969,4.607c0,1.905-0.656,3.437-1.969,4.594
			c-1.312,1.158-3.112,1.736-5.4,1.736H102.306z M102.306,105.131h3.938c1.112,0,1.955-0.303,2.529-0.909
			c0.574-0.606,0.861-1.378,0.861-2.317c0-0.957-0.285-1.748-0.854-2.372c-0.57-0.624-1.415-0.937-2.536-0.937h-3.938V105.131z"/>
		<path fill="#00FFFF" stroke="#00FFFF" stroke-width="0.7002" stroke-miterlimit="10" d="M131.006,98.596h-5.633v16.83h-3.992
			v-16.83h-5.605V95.52h15.23V98.596z"/>
		<path fill="#00FFFF" stroke="#00FFFF" stroke-width="0.7002" stroke-miterlimit="10" d="M149.684,95.52v13.207
			c0,2.233-0.738,3.956-2.215,5.168c-1.477,1.212-3.408,1.818-5.797,1.818c-2.379,0-4.299-0.606-5.762-1.818
			c-1.463-1.212-2.195-2.935-2.195-5.168V95.52h4.006v13.197c0,1.311,0.352,2.292,1.053,2.944c0.702,0.651,1.668,0.977,2.898,0.977
			c1.249,0,2.229-0.323,2.939-0.97c0.711-0.647,1.066-1.63,1.066-2.951V95.52H149.684z"/>
		<path fill="#00FFFF" stroke="#00FFFF" stroke-width="0.7002" stroke-miterlimit="10" d="M157.863,107.469v7.957h-3.992V95.52
			h7.506c2.27,0,4.044,0.518,5.324,1.552c1.281,1.035,1.922,2.477,1.922,4.327c0,1.03-0.27,1.914-0.807,2.652
			c-0.539,0.738-1.326,1.335-2.365,1.791c1.176,0.347,2.021,0.925,2.535,1.736c0.516,0.812,0.773,1.814,0.773,3.008v1.463
			c0,0.556,0.074,1.137,0.225,1.743c0.15,0.606,0.408,1.055,0.773,1.347v0.287h-4.115c-0.365-0.292-0.602-0.779-0.711-1.463
			s-0.164-1.331-0.164-1.941v-1.408c0-0.993-0.271-1.766-0.814-2.317c-0.542-0.551-1.305-0.827-2.289-0.827H157.863z
			 M157.863,104.393h3.445c1.121,0,1.957-0.237,2.508-0.711c0.552-0.474,0.828-1.176,0.828-2.105c0-0.911-0.276-1.636-0.828-2.174
			c-0.551-0.538-1.365-0.807-2.439-0.807h-3.514V104.393z"/>
		<path fill="#00FFFF" stroke="#00FFFF" stroke-width="0.7002" stroke-miterlimit="10" d="M185.318,106.676h-8.244v5.674h9.639
			v3.076h-13.631V95.52h13.604v3.076h-9.611v5.004h8.244V106.676z"/>
	</g>
</g>
</svg>
