<?xml version="1.0" encoding="utf-8"?>
<!-- Generator: Adobe Illustrator 16.0.4, SVG Export Plug-In . SVG Version: 6.00 Build 0)  -->
<!DOCTYPE svg PUBLIC "-//W3C//DTD SVG 1.1//EN" "http://www.w3.org/Graphics/SVG/1.1/DTD/svg11.dtd">
<svg version="1.1" xmlns="http://www.w3.org/2000/svg" xmlns:xlink="http://www.w3.org/1999/xlink" x="0px" y="0px" width="929px"
	 height="800px" viewBox="0 0 929 800" enable-background="new 0 0 929 800" xml:space="preserve">
<g id="Ebene_2">
</g>
<g id="Ebene_1">
	
		<line fill="none" stroke="#00FFFF" stroke-width="4" stroke-linecap="square" stroke-miterlimit="10" x1="53" y1="19" x2="19" y2="19"/>
	
		<line fill="none" stroke="#00FFFF" stroke-width="4" stroke-linecap="square" stroke-miterlimit="10" x1="19" y1="53" x2="19" y2="19"/>
	
		<line fill="none" stroke="#00FFFF" stroke-width="4" stroke-linecap="square" stroke-miterlimit="10" x1="911" y1="55" x2="911" y2="21"/>
	
		<line fill="none" stroke="#00FFFF" stroke-width="4" stroke-linecap="square" stroke-miterlimit="10" x1="877" y1="21" x2="911" y2="21"/>
	
		<line fill="none" stroke="#00FFFF" stroke-width="4" stroke-linecap="square" stroke-miterlimit="10" x1="19" y1="741" x2="19" y2="775"/>
	
		<line fill="none" stroke="#00FFFF" stroke-width="4" stroke-linecap="square" stroke-miterlimit="10" x1="53" y1="775" x2="19" y2="775"/>
	
		<line fill="none" stroke="#00FFFF" stroke-width="4" stroke-linecap="square" stroke-miterlimit="10" x1="879" y1="775" x2="913" y2="775"/>
	
		<line fill="none" stroke="#00FFFF" stroke-width="4" stroke-linecap="square" stroke-miterlimit="10" x1="913" y1="741" x2="913" y2="775"/>
	<rect x="18.5" y="20.5" fill="none" stroke="#00FFFF" stroke-miterlimit="10" width="894" height="754"/>
	<g>
		<path fill="#00FFFF" d="M406.713,302.689h11.593c6.717,0,9.017,4.922,9.017,9.845c0,6.809-4.187,9.892-10.443,9.892h-3.542v13.111
			h-6.625V302.689z M413.337,317.549h2.944c2.623,0,4.417-1.564,4.417-4.923c0-3.22-1.288-5.061-4.6-5.061h-2.761V317.549z"/>
		<path fill="#00FFFF" d="M431.737,335.537v-32.848h6.625v27.418h11.731v5.43H431.737z"/>
		<path fill="#00FFFF" d="M460.579,302.689h8.189l8.695,32.848h-6.901l-1.518-6.947h-8.741l-1.518,6.947h-6.901L460.579,302.689z
			 M461.453,323.161h6.441l-3.174-14.768h-0.092L461.453,323.161z"/>
		<path fill="#00FFFF" d="M494.943,313.776c0-4.784-0.966-6.854-3.957-6.854c-3.358,0-4.141,3.357-4.141,12.65
			c0,9.938,1.38,11.732,4.232,11.732c2.393,0,4.141-1.242,4.141-8.328h6.625c0,7.086-1.748,13.204-10.443,13.204
			c-9.937,0-11.179-7.085-11.179-17.067c0-9.984,1.242-17.068,11.179-17.068c9.477,0,10.167,6.947,10.167,11.731H494.943z"/>
		<path fill="#00FFFF" d="M525.119,302.689v5.428h-11.731v7.729h11.042v5.43h-11.042v8.832h12.191v5.43h-18.816v-32.848H525.119z"/>
		<path fill="#00FFFF" d="M393.697,368.977c0-4.785-0.966-6.855-3.957-6.855c-3.358,0-4.141,3.359-4.141,12.652
			c0,9.937,1.38,11.73,4.232,11.73c2.393,0,4.141-1.242,4.141-8.326h6.625c0,7.084-1.748,13.203-10.443,13.203
			c-9.937,0-11.179-7.085-11.179-17.068c0-9.982,1.242-17.067,11.179-17.067c9.477,0,10.167,6.946,10.167,11.731H393.697z"/>
		<path fill="#00FFFF" d="M416.006,357.245c9.937,0,11.179,7.085,11.179,17.067c0,9.983-1.242,17.068-11.179,17.068
			s-11.179-7.085-11.179-17.068C404.827,364.33,406.069,357.245,416.006,357.245z M416.006,386.504c3.91,0,4.554-3.357,4.554-12.191
			c0-8.787-0.644-12.191-4.554-12.191c-3.911,0-4.555,3.404-4.555,12.191C411.451,383.146,412.095,386.504,416.006,386.504z"/>
		<path fill="#00FFFF" d="M439.879,357.889l8.005,22.497h0.092v-22.497h6.073v32.848h-7.545l-8.097-23.002h-0.092v23.002h-6.073
			v-32.848H439.879z"/>
		<path fill="#00FFFF" d="M479.026,357.889v5.43h-7.177v27.418h-6.625v-27.418h-7.177v-5.43H479.026z"/>
		<path fill="#00FFFF" d="M501.382,357.889v5.43H489.65v7.729h11.042v5.428H489.65v8.834h12.191v5.428h-18.816v-32.848H501.382z"/>
		<path fill="#00FFFF" d="M513.938,357.889l8.005,22.497h0.092v-22.497h6.073v32.848h-7.545l-8.097-23.002h-0.092v23.002h-6.073
			v-32.848H513.938z"/>
		<path fill="#00FFFF" d="M553.084,357.889v5.43h-7.177v27.418h-6.625v-27.418h-7.177v-5.43H553.084z"/>
		<path fill="#00FFFF" d="M410.991,413.09h6.625v12.559h7.729V413.09h6.625v32.848h-6.625v-14.584h-7.729v14.584h-6.625V413.09z"/>
		<path fill="#00FFFF" d="M456.073,413.09v5.428h-11.731v7.729h11.042v5.43h-11.042v8.832h12.191v5.43h-18.816V413.09H456.073z"/>
		<path fill="#00FFFF" d="M460.992,413.09h12.237c5.429,0,8.741,2.852,8.741,8.465c0,4.37-1.749,7.314-5.475,8.097v0.092
			c4.508,0.599,5.198,3.083,5.291,10.029c0.046,3.45,0.23,5.245,1.472,5.889v0.276h-7.177c-0.644-0.92-0.782-2.162-0.828-3.451
			l-0.184-6.303c-0.092-2.576-1.242-4.141-3.911-4.141h-3.542v13.895h-6.625V413.09z M467.617,427.443h2.761
			c3.174,0,4.968-1.381,4.968-4.923c0-3.036-1.61-4.555-4.601-4.555h-3.128V427.443z"/>
		<path fill="#00FFFF" d="M506.075,413.09v5.428h-11.731v7.729h11.042v5.43h-11.042v8.832h12.191v5.43h-18.816V413.09H506.075z"/>
		<path fill="#00FFFF" d="M513.202,436.781l-0.874-13.019V413.09h6.349v10.673l-0.874,13.019H513.202z M518.677,439.864v6.073
			h-6.349v-6.073H518.677z"/>
	</g>
</g>
</svg>
